<svg width="25" height="25" viewBox="0 0 51 51" fill="none" xmlns="http://www.w3.org/2000/svg">
<path d="M22.47 25.1553L37.4668 15.5227C36.744 14.5617 35.9532 13.6537 35.1006 12.8057C33.7581 11.4438 32.2544 10.251 30.6228 9.25352L30.612 9.27219L25.294 7.17626C24.4554 7.01965 23.6041 6.94071 22.751 6.94043C17.8251 6.94043 13.6303 9.57779 10.4014 12.8057C7.17251 16.0336 4.53613 20.2294 4.53613 25.1553C4.53613 30.0812 7.17349 34.276 10.4014 37.5049C11.6802 38.8005 13.1039 39.9446 14.6444 40.9146L19.2961 42.9319C20.4248 43.2223 21.5856 43.3696 22.751 43.3702C27.6769 43.3702 31.8717 40.7328 35.1006 37.5049C36.0059 36.6049 36.8412 35.6371 37.5994 34.6101L37.6191 34.5777L22.47 25.1553Z" fill="#F2DE4C"/>
<path d="M42.3936 15.998C44.4807 18.5937 45.6186 21.8244 45.6186 25.1551C45.6186 28.4858 44.4807 31.7165 42.3936 34.3122L26.3955 25.1551L42.3936 15.998Z" fill="#F2DE4C"/>
<path d="M42.3936 15.998L26.3955 25.1551L28.97 26.629L43.7034 17.9183C43.3188 17.2443 42.8807 16.6022 42.3936 15.998Z" fill="#CEBC3C"/>
<path d="M13.3493 38.4875C10.1214 35.2586 7.484 31.0638 7.484 26.1379C7.484 21.212 10.1214 17.0172 13.3493 13.7883C16.5772 10.5594 20.773 7.92305 25.6989 7.92305C26.2965 7.92341 26.8935 7.96253 27.4861 8.04018L25.294 7.17626C24.4554 7.01965 23.6041 6.94071 22.751 6.94043C17.8251 6.94043 13.6303 9.57779 10.4014 12.8057C7.17251 16.0336 4.53613 20.2294 4.53613 25.1553C4.53613 30.0812 7.17349 34.276 10.4014 37.5049C11.6802 38.8005 13.1039 39.9446 14.6444 40.9146L19.2961 42.9319C19.7228 43.0411 20.1565 43.1305 20.597 43.2003L17.5922 41.8972C16.0518 40.9272 14.6281 39.7831 13.3493 38.4875Z" fill="#CEBC3C"/>
<path d="M14.7438 14.9844C15.3913 14.9843 16.0243 15.1762 16.5627 15.5359C17.1012 15.8955 17.5208 16.4068 17.7687 17.005C18.0165 17.6032 18.0814 18.2614 17.9551 18.8965C17.8288 19.5316 17.517 20.1149 17.0591 20.5728C16.6013 21.0306 16.0179 21.3424 15.3829 21.4687C14.7478 21.595 14.0895 21.5301 13.4913 21.2823C12.8931 21.0345 12.3819 20.6148 12.0222 20.0764C11.6625 19.538 11.4706 18.905 11.4707 18.2575C11.4708 17.3894 11.8156 16.5569 12.4294 15.9431C13.0433 15.3293 13.8758 14.9844 14.7438 14.9844Z" fill="#DE3C44"/>
<path d="M39.3737 19.7866C40.021 19.7868 40.6538 19.9789 41.1919 20.3387C41.73 20.6985 42.1494 21.2098 42.397 21.8079C42.6446 22.406 42.7093 23.0641 42.5829 23.6989C42.4564 24.3338 42.1446 24.9169 41.6868 25.3746C41.229 25.8322 40.6458 26.1439 40.0109 26.2701C39.376 26.3963 38.718 26.3314 38.1199 26.0837C37.5219 25.8359 37.0108 25.4164 36.6512 24.8781C36.2915 24.3399 36.0996 23.7071 36.0996 23.0598C36.0996 22.6299 36.1843 22.2042 36.3489 21.807C36.5135 21.4098 36.7547 21.049 37.0587 20.745C37.3627 20.4411 37.7237 20.2 38.1209 20.0355C38.5181 19.8711 38.9438 19.7865 39.3737 19.7866Z" fill="#F43B3B"/>
<path d="M25.9358 16.4502C27.1002 16.4502 27.0982 18.2572 25.9358 18.2572C24.7704 18.2572 24.7724 16.4502 25.9358 16.4502Z" fill="#717191"/>
<path d="M12.0092 29.9918C12.0092 31.1572 10.2021 31.1552 10.2021 29.9918C10.2021 28.8284 12.0092 28.8294 12.0092 29.9918Z" fill="#717191"/>
<path d="M24.6291 32.0532C25.7935 32.0532 25.7916 33.8603 24.6291 33.8603C23.4638 33.8603 23.4657 32.0532 24.6291 32.0532Z" fill="#717191"/>
<path d="M21.0677 40.0227C21.0678 40.6234 20.9026 41.2126 20.5901 41.7256C20.2776 42.2387 19.8299 42.6558 19.296 42.9312C17.6514 42.5006 16.0826 41.8202 14.6443 40.9139C14.5168 40.4637 14.4874 39.9913 14.5579 39.5287C14.6284 39.0661 14.7973 38.624 15.0532 38.2322C15.3091 37.8404 15.646 37.508 16.0412 37.2574C16.4364 37.0068 16.8807 36.8439 17.3442 36.7796C17.8077 36.7153 18.2796 36.7511 18.7281 36.8846C19.1766 37.0181 19.5913 37.2462 19.9442 37.5536C20.297 37.8609 20.5799 38.2404 20.7737 38.6663C20.9675 39.0922 21.0678 39.5547 21.0677 40.0227Z" fill="#F43B3B"/>
<path d="M30.6125 9.27172C30.6323 9.41664 30.6421 9.56274 30.642 9.70899C30.6419 10.2611 30.5022 10.8042 30.2359 11.2878C29.9696 11.7715 29.5853 12.1799 29.1188 12.4751C28.6522 12.7703 28.1186 12.9427 27.5675 12.9763C27.0164 13.0099 26.4658 12.9035 25.9669 12.6672C25.4679 12.4308 25.0369 12.0721 24.7138 11.6244C24.3907 11.1767 24.1861 10.6546 24.119 10.1066C24.0519 9.55856 24.1245 9.00248 24.33 8.49007C24.5355 7.97765 24.8673 7.52554 25.2945 7.17578C27.2057 7.53247 28.9882 8.27141 30.6233 9.25305L30.6125 9.27172Z" fill="#FB6771"/>
<path d="M40.1498 29.1194C40.1498 30.2838 38.3428 30.2818 38.3428 29.1194C38.3428 27.954 40.1498 27.956 40.1498 29.1194Z" fill="#717191"/>
<path d="M33.9877 25.8085C33.9877 26.9729 32.1797 26.9709 32.1797 25.8085C32.1797 24.6441 33.9877 24.6451 33.9877 25.8085Z" fill="#717191"/>
<path d="M15.8754 21.331C15.2467 21.0996 14.7041 20.6808 14.3208 20.1313C13.9376 19.5818 13.7321 18.928 13.7321 18.258C13.7321 17.588 13.9376 16.9342 14.3208 16.3846C14.7041 15.8351 15.2467 15.4164 15.8754 15.1849C15.3807 15.0033 14.8494 14.9438 14.3267 15.0115C13.804 15.0792 13.3055 15.2721 12.8733 15.5738C12.4412 15.8755 12.0883 16.2771 11.8446 16.7444C11.6009 17.2117 11.4736 17.7309 11.4736 18.258C11.4736 18.785 11.6009 19.3043 11.8446 19.7716C12.0883 20.2389 12.4412 20.6405 12.8733 20.9422C13.3055 21.2439 13.804 21.4368 14.3267 21.5045C14.8494 21.5722 15.3807 21.5127 15.8754 21.331Z" fill="#FF7D93"/>
<path d="M38.3592 23.0597C38.3592 22.3897 38.5649 21.7359 38.9483 21.1864C39.3317 20.6369 39.8744 20.2183 40.5032 19.987C40.0086 19.8055 39.4774 19.746 38.9548 19.8138C38.4323 19.8815 37.9338 20.0744 37.5018 20.3761C37.0698 20.6777 36.717 21.0793 36.4734 21.5465C36.2297 22.0137 36.1025 22.5328 36.1025 23.0597C36.1025 23.5867 36.2297 24.1058 36.4734 24.573C36.717 25.0403 37.0698 25.4418 37.5018 25.7434C37.9338 26.0451 38.4323 26.238 38.9548 26.3057C39.4774 26.3735 40.0086 26.314 40.5032 26.1325C39.8744 25.9012 39.3317 25.4826 38.9483 24.9331C38.5649 24.3836 38.3592 23.7298 38.3592 23.0597Z" fill="#FF6464"/>
<path d="M16.7815 40.514C16.7815 39.7291 17.0634 38.9702 17.576 38.3758C18.0886 37.7813 18.7977 37.3908 19.5741 37.2754C19.08 36.9549 18.5086 36.7738 17.9201 36.751C17.3316 36.7282 16.7479 36.8647 16.2305 37.146C15.7132 37.4273 15.2813 37.8431 14.9805 38.3494C14.6797 38.8557 14.5211 39.4338 14.5215 40.0227C14.5215 40.324 14.5628 40.6239 14.6443 40.9139C16.0826 41.8203 17.6514 42.5006 19.296 42.9313C19.3913 42.8821 19.4827 42.8266 19.5723 42.7685C18.6462 42.39 17.7537 41.934 16.9043 41.4052C16.8229 41.1152 16.7815 40.8153 16.7815 40.514Z" fill="#FB6771"/>
<path d="M26.3541 9.70897C26.3534 8.9523 26.616 8.21896 27.0967 7.63466C26.5061 7.44366 25.9039 7.29039 25.2938 7.17578C24.6955 7.66639 24.2903 8.35302 24.15 9.11391C24.0097 9.8748 24.1434 10.6608 24.5273 11.3325C24.9112 12.0043 25.5206 12.5184 26.2475 12.7836C26.9743 13.0489 27.7716 13.0482 28.498 12.7817C27.8692 12.5504 27.3265 12.1318 26.9431 11.5823C26.5597 11.0328 26.3541 10.379 26.3541 9.70897Z" fill="#D34059"/>
<path d="M41.0619 23.6494H40.3249C40.1686 23.6494 40.0186 23.5872 39.908 23.4767C39.7975 23.3661 39.7354 23.2162 39.7354 23.0598C39.7354 22.9034 39.7975 22.7535 39.908 22.6429C40.0186 22.5323 40.1686 22.4702 40.3249 22.4702H41.0619C41.2183 22.4702 41.3682 22.5323 41.4788 22.6429C41.5894 22.7535 41.6515 22.9034 41.6515 23.0598C41.6515 23.2162 41.5894 23.3661 41.4788 23.4767C41.3682 23.5872 41.2183 23.6494 41.0619 23.6494Z" fill="#C12826"/>
<path d="M38.3187 23.6494H37.3943C37.2379 23.6494 37.0879 23.5872 36.9774 23.4767C36.8668 23.3661 36.8047 23.2162 36.8047 23.0598C36.8047 22.9034 36.8668 22.7535 36.9774 22.6429C37.0879 22.5323 37.2379 22.4702 37.3943 22.4702H38.3187C38.4751 22.4702 38.625 22.5323 38.7356 22.6429C38.8462 22.7535 38.9083 22.9034 38.9083 23.0598C38.9083 23.2162 38.8462 23.3661 38.7356 23.4767C38.625 23.5872 38.4751 23.6494 38.3187 23.6494Z" fill="#C12826"/>
<path d="M39.1706 25.4473C39.0143 25.4473 38.8643 25.3852 38.7537 25.2747C38.6432 25.1641 38.5811 25.0141 38.5811 24.8578V24.2146C38.5811 24.0582 38.6432 23.9082 38.7537 23.7977C38.8643 23.6871 39.0143 23.625 39.1706 23.625C39.327 23.625 39.477 23.6871 39.5875 23.7977C39.6981 23.9082 39.7602 24.0582 39.7602 24.2146V24.8578C39.7602 25.0141 39.6981 25.1641 39.5875 25.2747C39.477 25.3852 39.327 25.4473 39.1706 25.4473Z" fill="#C12826"/>
<path d="M39.1706 22.4953C39.0143 22.4953 38.8643 22.4332 38.7537 22.3226C38.6432 22.2121 38.5811 22.0621 38.5811 21.9057V21.0749C38.5811 20.9186 38.6432 20.7686 38.7537 20.658C38.8643 20.5475 39.0143 20.4854 39.1706 20.4854C39.327 20.4854 39.477 20.5475 39.5875 20.658C39.6981 20.7686 39.7602 20.9186 39.7602 21.0749V21.9057C39.7602 22.0621 39.6981 22.2121 39.5875 22.3226C39.477 22.4332 39.327 22.4953 39.1706 22.4953Z" fill="#C12826"/>
<path d="M14.7439 17.8961C14.5875 17.8961 14.4375 17.834 14.327 17.7234C14.2164 17.6129 14.1543 17.4629 14.1543 17.3065V16.6633C14.1543 16.5069 14.2164 16.357 14.327 16.2464C14.4375 16.1358 14.5875 16.0737 14.7439 16.0737C14.9002 16.0737 15.0502 16.1358 15.1608 16.2464C15.2713 16.357 15.3334 16.5069 15.3334 16.6633V17.3065C15.3334 17.4629 15.2713 17.6129 15.1608 17.7234C15.0502 17.834 14.9002 17.8961 14.7439 17.8961Z" fill="#C12826"/>
<path d="M14.7439 20.4503C14.5875 20.4503 14.4375 20.3882 14.327 20.2776C14.2164 20.1671 14.1543 20.0171 14.1543 19.8607V19.3113C14.1543 19.1549 14.2164 19.0049 14.327 18.8944C14.4375 18.7838 14.5875 18.7217 14.7439 18.7217C14.9002 18.7217 15.0502 18.7838 15.1608 18.8944C15.2713 19.0049 15.3334 19.1549 15.3334 19.3113V19.8607C15.3334 20.0171 15.2713 20.1671 15.1608 20.2776C15.0502 20.3882 14.9002 20.4503 14.7439 20.4503Z" fill="#C12826"/>
<path d="M16.5411 19.0498H15.8982C15.7418 19.0498 15.5918 18.9876 15.4813 18.8771C15.3707 18.7665 15.3086 18.6165 15.3086 18.4602C15.3086 18.3038 15.3707 18.1539 15.4813 18.0433C15.5918 17.9327 15.7418 17.8706 15.8982 17.8706H16.5414C16.6978 17.8706 16.8477 17.9327 16.9583 18.0433C17.0688 18.1539 17.131 18.3038 17.131 18.4602C17.131 18.6165 17.0688 18.7665 16.9583 18.8771C16.8477 18.9876 16.6978 19.0498 16.5414 19.0498H16.5411Z" fill="#C12826"/>
<path d="M13.5903 19.0498H12.6658C12.5094 19.0498 12.3594 18.9876 12.2489 18.8771C12.1383 18.7665 12.0762 18.6165 12.0762 18.4602C12.0762 18.3038 12.1383 18.1539 12.2489 18.0433C12.3594 17.9327 12.5094 17.8706 12.6658 17.8706H13.5902C13.7466 17.8706 13.8965 17.9327 14.0071 18.0433C14.1177 18.1539 14.1798 18.3038 14.1798 18.4602C14.1798 18.6165 14.1177 18.7665 14.0071 18.8771C13.8965 18.9876 13.7466 19.0498 13.5902 19.0498H13.5903Z" fill="#C12826"/>
<path d="M17.7947 39.6603C17.6383 39.6603 17.4883 39.5981 17.3778 39.4876C17.2672 39.377 17.2051 39.2271 17.2051 39.0707V38.4275C17.2051 38.2711 17.2672 38.1211 17.3778 38.0106C17.4883 37.9 17.6383 37.8379 17.7947 37.8379C17.951 37.8379 18.101 37.9 18.2115 38.0106C18.3221 38.1211 18.3842 38.2711 18.3842 38.4275V39.0707C18.3842 39.2271 18.3221 39.377 18.2115 39.4876C18.101 39.5981 17.951 39.6603 17.7947 39.6603Z" fill="#C12826"/>
<path d="M17.7947 42.2159C17.6383 42.2159 17.4883 42.1538 17.3778 42.0433C17.2672 41.9327 17.2051 41.7827 17.2051 41.6264V41.0769C17.2051 40.9205 17.2672 40.7706 17.3778 40.66C17.4883 40.5494 17.6383 40.4873 17.7947 40.4873C17.951 40.4873 18.101 40.5494 18.2115 40.66C18.3221 40.7706 18.3842 40.9205 18.3842 41.0769V41.6264C18.3842 41.7827 18.3221 41.9327 18.2115 42.0433C18.101 42.1538 17.951 42.2159 17.7947 42.2159Z" fill="#C12826"/>
<path d="M19.5912 40.8149H18.948C18.7916 40.8149 18.6416 40.7528 18.5311 40.6422C18.4205 40.5316 18.3584 40.3817 18.3584 40.2253C18.3584 40.069 18.4205 39.919 18.5311 39.8084C18.6416 39.6979 18.7916 39.6357 18.948 39.6357H19.5912C19.7476 39.6357 19.8975 39.6979 20.0081 39.8084C20.1187 39.919 20.1808 40.069 20.1808 40.2253C20.1808 40.3817 20.1187 40.5316 20.0081 40.6422C19.8975 40.7528 19.7476 40.8149 19.5912 40.8149Z" fill="#C12826"/>
<path d="M16.6391 40.8149H15.7146C15.5582 40.8149 15.4082 40.7528 15.2977 40.6422C15.1871 40.5316 15.125 40.3817 15.125 40.2253C15.125 40.069 15.1871 39.919 15.2977 39.8084C15.4082 39.6979 15.5582 39.6357 15.7146 39.6357H16.6391C16.7955 39.6357 16.9454 39.6979 17.056 39.8084C17.1666 39.919 17.2287 40.069 17.2287 40.2253C17.2287 40.3817 17.1666 40.5316 17.056 40.6422C16.9454 40.7528 16.7955 40.8149 16.6391 40.8149Z" fill="#C12826"/>
<path d="M27.3679 9.34718C27.2115 9.34718 27.0616 9.28506 26.951 9.17449C26.8404 9.06393 26.7783 8.91397 26.7783 8.7576V8.11448C26.7783 7.95811 26.8404 7.80815 26.951 7.69758C27.0616 7.58702 27.2115 7.5249 27.3679 7.5249C27.5243 7.5249 27.6742 7.58702 27.7848 7.69758C27.8954 7.80815 27.9575 7.95811 27.9575 8.11448V8.7576C27.9575 8.91397 27.8954 9.06393 27.7848 9.17449C27.6742 9.28506 27.5243 9.34718 27.3679 9.34718Z" fill="#C12826"/>
<path d="M27.3679 11.902C27.2115 11.902 27.0616 11.8399 26.951 11.7293C26.8404 11.6187 26.7783 11.4688 26.7783 11.3124V10.7629C26.7783 10.6065 26.8404 10.4566 26.951 10.346C27.0616 10.2355 27.2115 10.1733 27.3679 10.1733C27.5243 10.1733 27.6742 10.2355 27.7848 10.346C27.8954 10.4566 27.9575 10.6065 27.9575 10.7629V11.3124C27.9575 11.4688 27.8954 11.6187 27.7848 11.7293C27.6742 11.8399 27.5243 11.902 27.3679 11.902Z" fill="#C12826"/>
<path d="M29.1635 10.5009H28.5202C28.3639 10.5009 28.2139 10.4388 28.1033 10.3282C27.9928 10.2177 27.9307 10.0677 27.9307 9.91135C27.9307 9.75499 27.9928 9.60503 28.1033 9.49446C28.2139 9.38389 28.3639 9.32178 28.5202 9.32178H29.1635C29.3198 9.32178 29.4698 9.38389 29.5804 9.49446C29.6909 9.60503 29.753 9.75499 29.753 9.91135C29.753 10.0677 29.6909 10.2177 29.5804 10.3282C29.4698 10.4388 29.3198 10.5009 29.1635 10.5009Z" fill="#C12826"/>
<path d="M26.2142 10.5009H25.2898C25.1334 10.5009 24.9834 10.4388 24.8729 10.3282C24.7623 10.2177 24.7002 10.0677 24.7002 9.91135C24.7002 9.75499 24.7623 9.60503 24.8729 9.49446C24.9834 9.38389 25.1334 9.32178 25.2898 9.32178H26.2142C26.3705 9.32178 26.5205 9.38389 26.6311 9.49446C26.7416 9.60503 26.8037 9.75499 26.8037 9.91135C26.8037 10.0677 26.7416 10.2177 26.6311 10.3282C26.5205 10.4388 26.3705 10.5009 26.2142 10.5009Z" fill="#C12826"/>
<path d="M10.3838 25.6139C10.3064 25.6139 10.2298 25.5986 10.1584 25.5689L8.97921 25.0806C8.90768 25.051 8.84268 25.0076 8.78793 24.9528C8.73318 24.8981 8.68975 24.8331 8.66012 24.7615C8.63049 24.69 8.61524 24.6133 8.61523 24.5359C8.61523 24.4585 8.63048 24.3818 8.66011 24.3103C8.68973 24.2387 8.73316 24.1737 8.78791 24.119C8.84266 24.0642 8.90765 24.0208 8.97918 23.9912C9.05071 23.9615 9.12738 23.9463 9.20481 23.9463C9.28223 23.9463 9.3589 23.9615 9.43043 23.9912L10.6096 24.4794C10.7357 24.5316 10.8399 24.6259 10.9043 24.7463C10.9686 24.8666 10.9893 25.0056 10.9626 25.1395C10.9359 25.2734 10.8636 25.3938 10.758 25.4804C10.6524 25.5669 10.5201 25.6141 10.3836 25.6139H10.3838Z" fill="#BCA831"/>
<path d="M22.6343 16.2459C22.5952 16.2459 22.5562 16.242 22.5179 16.2344C22.3646 16.2037 22.2297 16.1134 22.143 15.9833C22.0562 15.8532 22.0247 15.694 22.0554 15.5406L22.2519 14.558C22.2826 14.4047 22.3729 14.2698 22.503 14.183C22.6331 14.0963 22.7924 14.0648 22.9457 14.0954C23.0991 14.1261 23.2339 14.2164 23.3207 14.3465C23.4074 14.4766 23.4389 14.6359 23.4083 14.7892L23.2118 15.7718C23.1851 15.9054 23.113 16.0256 23.0077 16.112C22.9024 16.1984 22.7705 16.2457 22.6343 16.2459Z" fill="#BCA831"/>
<path d="M28.9233 38.912C28.7932 38.9122 28.6667 38.8693 28.5635 38.7901C28.4604 38.7109 28.3863 38.5998 28.3528 38.4741C28.3194 38.3484 28.3284 38.2151 28.3786 38.0951C28.4288 37.9751 28.5172 37.875 28.6302 37.8105L30.0058 37.0244C30.1415 36.9488 30.3015 36.9297 30.4511 36.9713C30.6008 37.0129 30.7279 37.1119 30.805 37.2467C30.8821 37.3816 30.9028 37.5414 30.8627 37.6915C30.8226 37.8415 30.7249 37.9697 30.5909 38.0481L29.2152 38.8342C29.1264 38.8852 29.0257 38.912 28.9233 38.912Z" fill="#BCA831"/>
<path d="M18.637 32.819C18.4979 32.8191 18.3631 32.77 18.2567 32.6803C18.1502 32.5907 18.0789 32.4663 18.0554 32.3291C18.0318 32.1919 18.0576 32.0508 18.1281 31.9308C18.1986 31.8108 18.3093 31.7196 18.4405 31.6733L19.5541 31.2803C19.6271 31.2545 19.7045 31.2433 19.7819 31.2474C19.8592 31.2515 19.935 31.2708 20.0048 31.3042C20.0747 31.3376 20.1374 31.3844 20.1891 31.442C20.2409 31.4995 20.2809 31.5668 20.3067 31.6398C20.3325 31.7128 20.3436 31.7902 20.3395 31.8675C20.3354 31.9448 20.3162 32.0206 20.2828 32.0905C20.2494 32.1604 20.2026 32.223 20.145 32.2748C20.0874 32.3266 20.0202 32.3665 19.9472 32.3923L18.8336 32.7854C18.7705 32.8076 18.704 32.819 18.637 32.819Z" fill="#BCA831"/>
<path d="M18.7035 26.1376C18.6024 26.1375 18.503 26.1114 18.4149 26.0619C18.3267 26.0123 18.2528 25.9409 18.2002 25.8545C18.1476 25.7682 18.1182 25.6697 18.1146 25.5686C18.1111 25.4676 18.1336 25.3673 18.18 25.2775L18.7474 24.1788C18.7826 24.1095 18.8312 24.0479 18.8903 23.9974C18.9495 23.947 19.018 23.9087 19.092 23.8849C19.166 23.861 19.244 23.852 19.3214 23.8584C19.3989 23.8648 19.4744 23.8865 19.5434 23.9222C19.6125 23.9578 19.6738 24.0068 19.7239 24.0663C19.774 24.1257 19.8118 24.1945 19.8352 24.2687C19.8586 24.3428 19.867 24.4208 19.8602 24.4983C19.8533 24.5757 19.8311 24.651 19.795 24.7198L19.2277 25.8185C19.178 25.9147 19.1028 25.9953 19.0104 26.0516C18.9179 26.1079 18.8118 26.1376 18.7035 26.1376Z" fill="#BCA831"/>
<path d="M14.8363 12.1187C14.6893 12.1184 14.5478 12.0632 14.4395 11.964C14.3311 11.8648 14.2637 11.7286 14.2504 11.5823C14.2372 11.436 14.2791 11.29 14.3679 11.1729C14.4567 11.0558 14.586 10.9761 14.7304 10.9494L15.9096 10.7332C16.0619 10.7085 16.2178 10.7444 16.3439 10.8332C16.47 10.9221 16.5563 11.0569 16.5842 11.2086C16.612 11.3604 16.5793 11.517 16.493 11.6449C16.4068 11.7728 16.2738 11.8618 16.1226 11.8927L14.9435 12.1089C14.9081 12.1154 14.8722 12.1187 14.8363 12.1187Z" fill="#BCA831"/>
<path d="M13.0052 36.366C12.9866 36.366 12.9679 36.3652 12.9489 36.3634L12.1628 36.2889C12.0858 36.2816 12.0109 36.2592 11.9425 36.2229C11.874 36.1867 11.8134 36.1373 11.7641 36.0776C11.7148 36.0179 11.6777 35.9491 11.6549 35.8751C11.6322 35.8011 11.6242 35.7233 11.6315 35.6463C11.6388 35.5692 11.6613 35.4943 11.6975 35.4259C11.7338 35.3574 11.7831 35.2968 11.8428 35.2475C11.9025 35.1982 11.9713 35.1611 12.0453 35.1383C12.1193 35.1156 12.1971 35.1076 12.2742 35.1149L13.0603 35.1895C13.211 35.2039 13.3505 35.2757 13.4497 35.3901C13.549 35.5045 13.6004 35.6527 13.5933 35.804C13.5863 35.9552 13.5213 36.098 13.4118 36.2026C13.3023 36.3073 13.1568 36.3658 13.0053 36.366H13.0052Z" fill="#BCA831"/>
<path d="M33.0837 15.7553C32.9512 15.7554 32.8225 15.7107 32.7187 15.6284L32.2915 15.291C32.2308 15.243 32.1801 15.1836 32.1423 15.116C32.1045 15.0484 32.0804 14.974 32.0714 14.8971C32.0624 14.8202 32.0686 14.7423 32.0897 14.6678C32.1108 14.5933 32.1463 14.5237 32.1943 14.4629C32.2423 14.4022 32.3018 14.3514 32.3694 14.3137C32.4369 14.2759 32.5113 14.2518 32.5882 14.2428C32.7435 14.2246 32.8997 14.2688 33.0224 14.3657L33.4494 14.703C33.5456 14.779 33.6157 14.883 33.65 15.0006C33.6844 15.1182 33.6812 15.2436 33.641 15.3593C33.6007 15.475 33.5255 15.5754 33.4256 15.6463C33.3257 15.7173 33.2062 15.7554 33.0837 15.7553Z" fill="#BCA831"/>
<path d="M42.8745 29.4589C42.7719 29.459 42.6711 29.4323 42.582 29.3815C42.4929 29.3307 42.4185 29.2576 42.3663 29.1693L41.875 28.3374C41.7955 28.2028 41.7726 28.0421 41.8115 27.8906C41.8504 27.7392 41.9479 27.6094 42.0825 27.5298C42.2171 27.4502 42.3778 27.4274 42.5293 27.4663C42.6807 27.5052 42.8105 27.6027 42.8901 27.7373L43.3814 28.5692C43.4343 28.6587 43.4627 28.7606 43.4635 28.8645C43.4643 28.9685 43.4377 29.0708 43.3862 29.1612C43.3347 29.2515 43.2603 29.3266 43.1704 29.3789C43.0805 29.4312 42.9784 29.4588 42.8745 29.4589Z" fill="#BCA831"/>
<path d="M14.644 40.9147C16.0823 41.821 17.6511 42.5014 19.2957 42.932C20.4244 43.2224 21.5852 43.3696 22.7506 43.3703C27.6765 43.3703 31.8713 40.7329 35.1002 37.505C36.0055 36.6049 36.8408 35.6372 37.599 34.6102L37.6187 34.5778L40.6393 36.4565C38.7328 39.4766 36.0922 41.9645 32.9641 43.688C29.8359 45.4114 26.3221 46.3143 22.7506 46.3123C11.0662 46.3123 1.59375 36.8398 1.59375 25.1554C1.59375 13.471 11.0662 3.99854 22.7506 3.99854C26.2695 3.99645 29.7333 4.87285 32.8277 6.54826C35.9222 8.22367 38.5495 10.6451 40.4712 13.5929L37.4664 15.5227C36.7435 14.5617 35.9528 13.6538 35.1002 12.8058C33.7577 11.4439 32.254 10.251 30.6224 9.25361C28.9873 8.27197 27.2048 7.53303 25.2936 7.17634C24.455 7.01973 23.6037 6.94079 22.7506 6.94051C17.8247 6.94051 13.6299 9.57787 10.401 12.8058C7.1721 16.0337 4.53572 20.2295 4.53572 25.1554C4.53572 30.0813 7.17308 34.2761 10.401 37.505C11.6798 38.8006 13.1035 39.9447 14.644 40.9147Z" fill="#E5995A"/>
<path d="M44.4374 14.8281C45.7938 16.1842 46.8698 17.7943 47.6038 19.5662C48.3379 21.3382 48.7158 23.2375 48.7158 25.1555C48.7158 27.0735 48.3379 28.9728 47.6038 30.7447C46.8698 32.5167 45.7938 34.1268 44.4374 35.4829L42.3926 34.3126C44.4797 31.7169 45.6176 28.4862 45.6176 25.1555C45.6176 21.8248 44.4797 18.5941 42.3926 15.9984L44.4374 14.8281Z" fill="#E5995A"/>
</svg>
