<svg width="20" height="23" viewBox="0 0 20 23" fill="none" xmlns="http://www.w3.org/2000/svg">
<path d="M9.99997 7.5C10.9889 7.5 11.9556 7.79325 12.7778 8.34265C13.6001 8.89206 14.2409 9.67295 14.6194 10.5866C14.9978 11.5002 15.0968 12.5055 14.9039 13.4755C14.711 14.4454 14.2348 15.3363 13.5355 16.0355C12.8362 16.7348 11.9453 17.211 10.9754 17.4039C10.0055 17.5969 9.00019 17.4978 8.08656 17.1194C7.17293 16.741 6.39203 16.1001 5.84263 15.2779C5.29322 14.4556 4.99997 13.4889 4.99997 12.5C5.00148 11.1744 5.52874 9.90348 6.4661 8.96613C7.40346 8.02877 8.67435 7.5015 9.99997 7.5ZM9.99997 2.5C8.02216 2.5 6.08876 3.08649 4.44427 4.1853C2.79978 5.28412 1.51805 6.8459 0.761179 8.67317C0.0043023 10.5004 -0.193731 12.5111 0.192121 14.4509C0.577973 16.3907 1.53038 18.1725 2.92891 19.5711C4.32743 20.9696 6.10926 21.922 8.04907 22.3079C9.98888 22.6937 11.9995 22.4957 13.8268 21.7388C15.6541 20.9819 17.2159 19.7002 18.3147 18.0557C19.4135 16.4112 20 14.4778 20 12.5C20 9.84784 18.9464 7.3043 17.071 5.42893C15.1957 3.55357 12.6521 2.5 9.99997 2.5Z" fill="#121549"/>
<path d="M10 5C11.3807 5 12.5 3.88071 12.5 2.5C12.5 1.11929 11.3807 0 10 0C8.61932 0 7.50003 1.11929 7.50003 2.5C7.50003 3.88071 8.61932 5 10 5Z" fill="#F49C00"/>
</svg>
