<svg width="100" height="100" viewBox="0 0 100 100" fill="none" xmlns="http://www.w3.org/2000/svg">
<path d="M100 50C100 77.6142 77.6142 100 50 100C22.3858 100 0 77.6142 0 50C0 22.3858 22.3858 0 50 0C77.6142 0 100 22.3858 100 50ZM12 50C12 70.9868 29.0132 88 50 88C70.9868 88 88 70.9868 88 50C88 29.0132 70.9868 12 50 12C29.0132 12 12 29.0132 12 50Z" fill="white" fill-opacity="0.2"/>
<path d="M100 50C100 40.1109 97.0676 30.4439 91.5735 22.2215C86.0794 13.999 78.2705 7.5904 69.1342 3.80602C59.9979 0.0216417 49.9445 -0.968525 40.2455 0.960736C30.5464 2.89 21.6373 7.65204 14.6447 14.6447C7.65204 21.6373 2.89 30.5464 0.960736 40.2455C-0.968525 49.9445 0.0216418 59.9979 3.80602 69.1342C7.59041 78.2705 13.999 86.0794 22.2215 91.5735C30.4439 97.0676 40.1109 100 50 100V88C42.4843 88 35.1374 85.7713 28.8883 81.5958C22.6393 77.4203 17.7687 71.4856 14.8926 64.542C12.0164 57.5984 11.2639 49.9578 12.7302 42.5866C14.1964 35.2153 17.8155 28.4443 23.1299 23.1299C28.4443 17.8155 35.2153 14.1964 42.5866 12.7302C49.9578 11.2639 57.5984 12.0164 64.542 14.8926C71.4856 17.7687 77.4203 22.6393 81.5958 28.8883C85.7713 35.1374 88 42.4843 88 50H100Z" fill="white"/>
</svg>
